<?xml version="1.0" encoding="utf-8"?>
<!-- Generator: Adobe Illustrator 22.0.1, SVG Export Plug-In . SVG Version: 6.00 Build 0)  -->
<svg version="1.1" xmlns="http://www.w3.org/2000/svg" xmlns:xlink="http://www.w3.org/1999/xlink" x="0px" y="0px"
	 viewBox="0 0 512 512" style="enable-background:new 0 0 512 512;" xml:space="preserve">
<style type="text/css">
	.st0{fill:#4B71B4;}
	.st1{fill:#80B4E8;}
	.st2{fill:#594144;}
	.st3{fill:#B8E876;}
	.st4{fill:#E09122;}
	.st5{fill:#FBF355;}
	.st6{fill:#EEC82F;}
	.st7{fill:#CEA628;}
	.st8{fill:#9BC9EF;}
	.st9{fill:#9DD055;}
	.st10{fill:#5686C5;}
	.st11{fill:#3B5880;}
	.st12{fill:#C2E5FB;}
	.st13{fill:#446697;}
	.st14{fill:#D1F1A0;}
	.st15{fill:#ABD170;}
	.st16{fill:#9DBD6A;}
	.st17{fill:#649D53;}
	.st18{fill:#72B35D;}
	.st19{fill:#ABD68D;}
	.st20{fill:#7FB358;}
	.st21{fill:#920C50;}
	.st22{fill:#C60053;}
	.st23{fill:#530730;}
	.st24{fill:#600332;}
	.st25{fill:#D5AC2A;}
	.st26{fill:#EFD776;}
	.st27{fill:#A7C76D;}
	.st28{fill:#A43749;}
	.st29{fill:#DC4355;}
	.st30{fill:#E18696;}
	.st31{fill:#77A255;}
	.st32{fill:#628547;}
	.st33{fill:#6E994D;}
	.st34{fill:none;stroke:#54743C;stroke-width:8;stroke-linecap:round;stroke-miterlimit:10;}
	.st35{fill:#9BCF75;}
	.st36{fill:#CA8F80;}
	.st37{fill:#E6B8AB;}
	.st38{fill:#E2A18B;}
	.st39{fill:#8E3F2B;}
	.st40{fill:#D89988;}
	.st41{fill:#CFCFCF;}
	.st42{fill:#A64B2D;}
	.st43{fill:#FFFFFF;}
	.st44{fill:#CA801F;}
	.st45{fill:#719C50;}
	.st46{fill:#85B7E5;}
	.st47{fill:#4F7BA9;}
	.st48{fill:#674C50;}
	.st49{fill:#BAD7ED;}
	.st50{fill:#63494D;}
	.st51{fill:#503D3F;}
	.st52{fill:#638547;}
	.st53{fill:#56713E;}
	.st54{fill:#BB5135;}
	.st55{fill:#93C4EC;}
	.st56{fill:#CA8121;}
	.st57{fill:#FDFCFC;}
	.st58{fill:#A83A4F;}
	.st59{fill:#BD5E44;}
	.st60{fill:#688C4A;}
	.st61{fill:#7DA55A;}
	.st62{fill:#90BA51;}
	.st63{fill:none;}
	.st64{fill:#ABC287;}
	.st65{fill:#BDD993;}
	.st66{fill:none;stroke:#534046;stroke-width:15;stroke-linecap:round;stroke-linejoin:round;stroke-miterlimit:10;}
	.st67{fill:#413133;}
	.st68{fill:#34292B;}
	.st69{fill:#644B50;}
	.st70{fill:#CDACB7;}
	.st71{fill:#A83A4D;}
	.st72{fill:#413335;}
	.st73{fill:#DC6579;}
	.st74{fill:#4C393C;}
	.st75{fill:#527FAE;}
	.st76{fill:#92C2EA;}
	.st77{fill:#5B8C4A;}
	.st78{fill:#729C51;}
	.st79{fill:#AADB5E;}
	.st80{fill:#D66C53;}
	.st81{fill:#A65340;}
	.st82{fill:#B8594A;}
	.st83{fill:#79A754;}
	.st84{fill:#4E3B3E;}
	.st85{fill:#5E4649;}
	.st86{fill:#604A50;}
	.st87{fill:#685258;}
	.st88{fill:#765E66;}
	.st89{fill:#FCF69A;}
	.st90{fill:#D3CC84;}
	.st91{fill:#E6A572;}
	.st92{fill:#74A151;}
	.st93{fill:#6F994F;}
	.st94{fill:#CC6D7D;}
	.st95{fill:#AD6576;}
	.st96{fill:#95422D;}
	.st97{fill:#BE6850;}
	.st98{fill:#3B2F32;}
	.st99{fill:none;stroke:#46383B;stroke-width:15;stroke-linecap:round;stroke-miterlimit:10;}
	.st100{fill:none;stroke:#3B2F32;stroke-width:15;stroke-linecap:round;stroke-miterlimit:10;}
	.st101{fill:#D6CF77;}
	.st102{fill:#F5EF82;}
	.st103{fill:#4A383B;}
	.st104{fill:#CACACA;}
	.st105{fill:#48373A;}
	.st106{fill:#7AA8D2;}
	.st107{fill:#6E9150;}
	.st108{fill:#587441;}
	.st109{fill:#D76E51;}
	.st110{fill:#CCC475;}
	.st111{fill:#DDD57E;}
	.st112{fill:#F8F19C;}
	.st113{fill:#FBF58A;}
	.st114{fill:#C67F20;}
	.st115{fill:#AB6B1C;}
	.st116{fill:#C98020;}
	.st117{fill:#D99A41;}
	.st118{fill:#DBA35B;}
	.st119{fill:#9B5F1B;}
	.st120{fill:#97CF6D;}
	.st121{fill:#5380B1;}
	.st122{fill:#96D16A;}
	.st123{fill:#92BD50;}
	.st124{fill:#7EB058;}
	.st125{fill:#709A50;}
	.st126{fill:#5A8A4A;}
	.st127{fill:#D9D9D9;}
	.st128{fill:#75A3CD;}
	.st129{fill:#6E974F;}
	.st130{fill:#CA6D7D;}
	.st131{fill:#AB6576;}
	.st132{fill:#93422D;}
	.st133{fill:#A44B2D;}
	.st134{fill:#BC6850;}
	.st135{fill:#DFB52B;}
	.st136{fill:#4C3A3C;}
	.st137{fill:#473538;}
	.st138{fill:#382B2E;}
	.st139{fill:none;stroke:#FFFFFF;stroke-width:8;stroke-linecap:round;stroke-miterlimit:10;}
	.st140{fill:#90C0E8;}
	.st141{fill:none;stroke:#E09122;stroke-width:12;stroke-linecap:round;stroke-miterlimit:10;}
	.st142{fill:#DCAE2B;}
	.st143{fill:#F0D05A;}
	.st144{fill:#729E51;}
	.st145{fill:#E4BA36;}
	.st146{fill:#F8F283;}
	.st147{fill:#E4B6A9;}
	.st148{fill:#D78E30;}
	.st149{fill:#598A49;}
	.st150{fill:#B65339;}
	.st151{fill:#BA751F;}
	.st152{fill:#466A9F;}
	.st153{fill:#8BB34D;}
	.st154{fill:#9BCE54;}
	.st155{fill:#7F9F49;}
	.st156{fill:#D37F6D;}
	.st157{fill:#BB5E44;}
	.st158{fill:#93BB55;}
	.st159{fill:#B3E665;}
	.st160{fill:none;stroke:#4C393C;stroke-width:8;stroke-miterlimit:10;}
	.st161{fill:#97432D;}
	.st162{fill:#DAB12A;}
	.st163{fill:#5E914C;}
	.st164{fill:#5381B3;}
	.st165{fill:#6A8F4C;}
	.st166{fill:#628047;}
	.st167{fill:#E29D37;}
	.st168{fill:#6E555B;}
	.st169{fill:#91CA67;}
	.st170{fill:#476BA1;}
	.st171{fill:#6699D9;}
	.st172{fill:#503C3E;}
	.st173{fill:#413235;}
	.st174{fill:#CC916A;}
	.st175{fill:#BA8363;}
	.st176{fill:#D09571;}
	.st177{fill:#C98F68;}
	.st178{fill:#AA3B4D;}
	.st179{fill:#DA6075;}
	.st180{fill:#92452D;}
	.st181{fill:#A24B2D;}
	.st182{fill:#B76252;}
	.st183{fill:#87BD60;}
	.st184{fill:#78A7D2;}
	.st185{fill:#F9F38F;}
	.st186{fill:#E0D650;}
	.st187{fill:#AFE086;}
	.st188{fill:#9FD476;}
	.st189{fill:#9DD176;}
	.st190{fill:#8FC468;}
	.st191{fill:#7EAE58;}
	.st192{fill:#6F9850;}
	.st193{fill:#59884A;}
	.st194{fill:#638347;}
	.st195{fill:#B95135;}
	.st196{fill:#E5AB62;}
	.st197{fill:#733228;}
	.st198{fill:#803728;}
	.st199{fill:#6D974D;}
	.st200{fill:#99CD75;}
	.st201{fill:#93412C;}
	.st202{fill:#93C2EA;}
	.st203{fill:#CD926B;}
	.st204{fill:#E6AF8A;}
	.st205{fill:#E5DB4E;}
	.st206{fill:#FBF375;}
	.st207{fill:#779E54;}
	.st208{fill:#D3966D;}
	.st209{fill:#DA4355;}
	.st210{fill:#A83B4D;}
	.st211{fill:none;stroke:#594144;stroke-width:8;stroke-linecap:round;stroke-miterlimit:10;}
	.st212{fill:#E5A855;}
	.st213{fill:#EAC291;}
	.st214{fill:#96C252;}
	.st215{fill:#695055;}
	.st216{fill:#DC9C42;}
	.st217{fill:#8E5C1B;}
	.st218{fill:#F4EB6A;}
	.st219{fill:#CBC049;}
	.st220{fill:none;stroke:#B8E876;stroke-width:15;stroke-linecap:round;stroke-miterlimit:10;}
	.st221{fill:#A36A1C;}
	.st222{fill:#ECC94A;}
	.st223{fill:#91BEDA;}
	.st224{fill:#3D2F32;}
	.st225{fill:#A6394C;}
	.st226{fill:#33292B;}
	.st227{fill:#4F3D42;}
	.st228{fill:#638147;}
	.st229{fill:#CD8321;}
	.st230{fill:#D3CA4A;}
	.st231{fill:#E2A550;}
	.st232{fill:#B75135;}
	.st233{fill:#D4CD77;}
	.st234{fill:#F3EC80;}
	.st235{fill:#46383B;}
	.st236{fill:#82AA61;}
	.st237{fill:#8EBF69;}
	.st238{fill:#3C2E31;}
	.st239{fill:#C49F27;}
	.st240{fill:#D2BF7C;}
	.st241{fill:#F6E18D;}
	.st242{fill:#D6D6D6;}
	.st243{fill:#B5D7F2;}
	.st244{fill:#F1D467;}
	.st245{fill:#739FBD;}
	.st246{fill:#D0946C;}
	.st247{fill:#BE8767;}
	.st248{fill:#D0A829;}
	.st249{fill:#F6DF86;}
	.st250{fill:#EABA8D;}
	.st251{fill:#F0D1B8;}
	.st252{fill:#A5D0F1;}
	.st253{fill:#E3A13F;}
	.st254{fill:#F0FAFF;}
	.st255{fill:#B4D3E3;}
	.st256{fill:#80A5C3;}
	.st257{fill:#87AFD5;}
	.st258{fill:#B1D1E7;}
	.st259{fill:#AED66F;}
	.st260{fill:#91AA61;}
	.st261{fill:#A8384B;}
	.st262{fill:#CD8120;}
	.st263{fill:#E6AD56;}
	.st264{fill:none;stroke:#E6AD56;stroke-width:8;stroke-linecap:round;stroke-miterlimit:10;}
	.st265{fill:#9EBD68;}
	.st266{fill:#AAD16E;}
	.st267{fill:#86656B;}
	.st268{fill:#6D954D;}
	.st269{fill:#98CB75;}
	.st270{fill:#75A251;}
	.st271{fill:#91BD4F;}
	.st272{fill:none;stroke:#B8E078;stroke-width:8;stroke-linecap:round;stroke-miterlimit:10;}
	.st273{fill:none;stroke:#B8E078;stroke-width:8;stroke-linecap:round;stroke-linejoin:round;stroke-miterlimit:10;}
	.st274{fill:#8FBA4E;}
	.st275{fill:#B3E860;}
	.st276{fill:#E7A748;}
	.st277{fill:none;stroke:#B6E676;stroke-width:15;stroke-linecap:round;stroke-miterlimit:10;}
	.st278{fill:#639B53;}
	.st279{fill:#476B9F;}
	.st280{fill:#82B1DE;}
	.st281{fill:#A6533F;}
	.st282{fill:#C28A69;}
	.st283{fill:#64494E;}
	.st284{fill:#77565C;}
	.st285{fill:#4F3C40;}
	.st286{fill:#ECCCB1;}
	.st287{fill:#BF6F5C;}
	.st288{fill:none;stroke:#D4F1A7;stroke-width:10;stroke-linecap:round;stroke-miterlimit:10;}
	.st289{fill:none;stroke:#B8E876;stroke-width:10;stroke-linecap:round;stroke-miterlimit:10;}
	.st290{fill:#47688F;}
	.st291{fill:#3F5B78;}
	.st292{fill:#354E6C;}
	.st293{fill:#DAB12B;}
	.st294{fill:#C8A028;}
	.st295{fill:#F0D15C;}
	.st296{fill:#F8F28B;}
	.st297{fill:#F7F18D;}
	.st298{fill:#DED450;}
	.st299{fill:#F9F155;}
	.st300{fill:#A2CFF4;}
	.st301{fill:none;stroke:#594144;stroke-width:10;stroke-linecap:round;stroke-miterlimit:10;}
	.st302{fill:#F5F0AB;}
	.st303{fill:#496DA1;}
	.st304{fill:#5A85C7;}
	.st305{fill:#D7D7D7;}
	.st306{fill:#ADD3E6;}
	.st307{fill:#98B8C3;}
	.st308{fill:#CDCECF;}
	.st309{fill:#BF4F69;}
	.st310{fill:#A83448;}
	.st311{fill:#A4DAF7;}
	.st312{fill:#81A861;}
	.st313{fill:#82A549;}
	.st314{fill:#B6E676;}
	.st315{fill:#8CBD69;}
	.st316{fill:#ECC62F;}
	.st317{fill:#F4EA80;}
	.st318{fill:#D6AD2B;}
	.st319{fill:#6F9151;}
	.st320{fill:#46699C;}
	.st321{fill:#4A373A;}
	.st322{fill:#89B04C;}
	.st323{fill:#99CC53;}
	.st324{fill:#B1E465;}
	.st325{fill:#E19E3B;}
	.st326{fill:#C05970;}
	.st327{fill:#D95F74;}
	.st328{fill:#74A8DE;}
	.st329{fill:#C47C1E;}
	.st330{fill:#719A51;}
	.st331{fill:#A8D95E;}
	.st332{fill:#D46C53;}
	.st333{fill:#A45340;}
	.st334{fill:#B6594A;}
	.st335{fill:#79A554;}
	.st336{fill:#B6DAF7;}
	.st337{fill:#739F51;}
	.st338{fill:#DDB32B;}
	.st339{fill:#DE8F22;}
	.st340{fill:none;stroke:#46383B;stroke-width:8;stroke-linecap:round;stroke-miterlimit:10;}
	.st341{fill:none;stroke:#3B2F32;stroke-width:8;stroke-linecap:round;stroke-miterlimit:10;}
	.st342{fill:#C8C8C8;}
	.st343{fill:#7F9D49;}
	.st344{fill:#BA5E44;}
	.st345{fill:#92B955;}
	.st346{fill:#D17F6D;}
	.st347{fill:#5D8F4C;}
	.st348{fill:#B75334;}
	.st349{fill:#CA6D57;}
	.st350{fill:#A4574D;}
	.st351{fill:#7FB1E6;}
	.st352{fill:#77A3CD;}
	.st353{fill:#90BA4F;}
	.st354{fill:#5C8F4B;}
	.st355{fill:#ACDE5D;}
	.st356{fill:#6FAC5A;}
	.st357{fill:none;stroke:#9DD055;stroke-width:10;stroke-linecap:round;stroke-miterlimit:10;}
	.st358{fill:#AD5643;}
	.st359{fill:#B96052;}
	.st360{fill:#CB8D84;}
	.st361{fill:#CC6C56;}
	.st362{fill:#DE9A8E;}
	.st363{fill:#D37B6A;}
	.st364{fill:#A87758;}
	.st365{fill:#372A2C;}
	.st366{fill:#B8815C;}
	.st367{fill:#433335;}
	.st368{fill:#2C2325;}
	.st369{fill:#95402B;}
	.st370{fill:#A85441;}
	.st371{fill:#D2C74B;}
	.st372{fill:#B25945;}
	.st373{fill:none;stroke:#594144;stroke-width:15;stroke-linecap:round;stroke-miterlimit:10;}
	.st374{fill:none;stroke:#594144;stroke-width:12;stroke-linecap:round;stroke-miterlimit:10;}
	.st375{fill:#8F473B;}
	.st376{fill:#453538;}
	.st377{fill:#517DAB;}
	.st378{fill:#75A050;}
	.st379{fill:#A5384D;}
	.st380{fill:#CC6075;}
	.st381{fill:#F26B7F;}
	.st382{fill:#C67189;}
	.st383{fill:#B26980;}
	.st384{fill:#D87990;}
	.st385{fill:#F2869B;}
	.st386{fill:#EF8499;}
	.st387{fill:#649CD7;}
	.st388{fill:#639CDB;}
	.st389{fill:#C8ED8D;}
	.st390{fill:#A9DB83;}
	.st391{fill:#9BCF76;}
	.st392{fill:#7EAC58;}
	.st393{fill:#8CC463;}
	.st394{fill:#7FAC5B;}
	.st395{fill:#769C55;}
	.st396{fill:#6A894D;}
	.st397{fill:#769B56;}
	.st398{fill:#9BCC75;}
	.st399{fill:#AF5641;}
	.st400{fill:#F4D576;}
	.st401{fill:#76A055;}
	.st402{fill:#628347;}
	.st403{fill:#4F7B9F;}
	.st404{fill:#466D86;}
	.st405{fill:#4D789C;}
</style>
<g id="BULINE">
	<circle id="XMLID_1870_" class="st6" cx="256" cy="256" r="256"/>
</g>
<g id="Icons">
	<g id="XMLID_1733_">
		<g id="XMLID_1871_">
			<path id="XMLID_1981_" class="st45" d="M362,510.3c-0.3,0.7-0.6,1.4-1,2c-1.1-0.5-2.1-1-3.2-1.3c-2.5-0.8-5.1-1.2-7.9-1.2
				C353.8,509.6,357.9,510,362,510.3z"/>
			<path id="XMLID_1982_" class="st124" d="M501.9,327.5c-12.1,41.8-34.6,79.1-64.5,109.1c0,0.2-0.1,0.3-0.2,0.5
				c-2.9,8.9-13.3,13.9-22.4,19.6c-3,2.4-6,4.7-9.1,6.9c-1.2,0.8-2.3,1.7-3.5,2.5c-13.1,9.2-27.2,17.1-42,23.7
				c-15.4,6.9-31.6,12.3-48.5,16.1c-9.4-9-7.9-29.1-15.6-39.7c-8-11.1-29.4-15.8-33.7-29.1c-0.5-1.5-0.7-3.1-0.8-4.7
				c-0.2-12,10.9-26.1,10.9-38.6c0-0.4,0-0.9,0-1.3c-0.8-13.9-14.2-29.6-10.2-42c2.4-7.4,10-12.1,17.7-16.7
				c3.6-2.2,7.3-4.4,10.4-6.8c2.2-1.7,4.1-3.5,5.6-5.6c1-1.4,1.9-2.9,2.6-4.6c1.3-3,2.3-6.4,3.2-9.9c1.5-6.1,2.7-12.6,5.1-18
				c0.1-0.3,0.3-0.7,0.4-1c1.4-3.1,3.3-5.7,5.9-7.6c0.1,0,0.1-0.1,0.2-0.1c3.1-2.2,6.9-3.1,11.1-3.4c7.9-0.5,17,1.3,25.1,1
				c0.2,0,0.3,0,0.5,0c2.6-0.1,5.2-0.5,7.5-1.2c2.4-0.8,4.7-2,7-3.6c3.7-2.5,7.2-5.8,10.9-8.9c6.4-5.5,12.9-10.5,20.2-10.5
				c10.2,0,18.8,9.7,27.5,16.7c0.6,0.5,1.1,0.9,1.7,1.3c0.7,0.6,1.5,1.1,2.2,1.6c1.9,1.2,3.7,2.3,5.6,3c0.3,0.2,0.7,0.3,1.1,0.4
				c2.3,0.7,4.7,1.1,7.3,1.2c7.3,0.4,15.6-1.1,23-1.1c3.3,0,6.5,0.3,9.3,1.2c1.7,0.5,3.3,1.3,4.7,2.4c11.2,8.1,9.1,29.9,17.2,41
				C497.2,323.7,499.4,325.7,501.9,327.5z"/>
			<path id="XMLID_1963_" class="st60" d="M427,393.8c0,14,14,30.1,10.3,42.8c0,0.2-0.1,0.3-0.2,0.5c-2.9,8.9-13.3,13.9-22.4,19.6
				c-3.4,2.1-6.6,4.3-9.1,6.9c-1.2,0.8-2.3,1.7-3.5,2.5c-13.1,9.2-27.2,17.1-42,23.7c-15.4,6.9-31.6,12.3-48.5,16.1
				c-9.4-9-7.9-29.1-15.6-39.7c-8-11.1-29.4-15.8-33.7-29.1c-0.5-1.5-0.7-3.1-0.8-4.7c-0.2-12,10.9-26.1,10.9-38.6
				c0-0.4,0-0.9,0-1.3c-0.8-13.9-14.2-29.6-10.2-42c2.4-7.4,10-12.1,17.7-16.7c3.6-2.2,7.3-4.4,10.4-6.8c2.2-1.7,4.1-3.5,5.6-5.6
				c1-1.4,1.9-2.9,2.6-4.6c1.3-3,2.3-6.4,3.2-9.9c1.5-6.1,2.7-12.6,5.1-18c0.1-0.3,0.3-0.7,0.4-1c1.4-3.1,3.3-5.7,5.9-7.6
				c0.1,0,0.1-0.1,0.2-0.1c3.1-2.2,6.9-3.1,11.1-3.4c7.9-0.5,17,1.3,25.1,1c0.2,0,0.4,0,0.6,0c4.3,0.1,8.8-0.3,13.4-0.7
				c8.4-0.7,16.7-1,22.4,3.2c3.3,2.4,5.5,6.1,7.1,10.3c0.5,1.4,1,2.8,1.4,4.3c1.1,3.8,1.9,7.8,2.9,11.6c1.1,4.6,2.5,9.1,4.6,12.7
				c0.4,0.7,0.8,1.4,1.3,2c8,11.1,29.4,15.8,33.7,29.1C441.4,363.3,427,379.6,427,393.8z"/>
			<path id="XMLID_1949_" class="st45" d="M362,510.3c-0.3,0.7-0.6,1.4-1,2c-1.1-0.5-2.1-1-3.2-1.3c-2.5-0.8-5.1-1.2-7.9-1.2
				C353.8,509.6,357.9,510,362,510.3z"/>
			<path id="XMLID_1950_" class="st124" d="M362.6,425.8c-2.7,11.5-11.2,24.1-11.2,35.5c0,9.1,5.4,19,8.9,28.5
				c-15.4,6.9-31.6,12.3-48.5,16.1c-18,4-36.7,6.1-55.9,6.1c-11.3,0-22.4-0.7-33.2-2.1c-17.4-2.2-34.2-6.2-50.3-11.8
				c-2.7-0.9-5.4-1.9-8-2.9h0l-11.2-4.6c-9-3.9-17.7-8.4-26.1-13.3h0c-19.6-11.5-37.6-25.5-53.4-41.5c-0.2-0.5-0.4-0.9-0.6-1.4
				c-2.8-7.2-4.8-14.2-2.8-20.4c0.8-2.4,2-4.5,3.6-6.4c3.7-4.4,9.1-7.9,14.7-11.3c7.1-4.3,14.4-8.5,18.6-14.1
				c1.8-2.5,3.1-5.4,4.2-8.5c1.6-4.7,2.7-9.9,3.9-15c2.1-8.7,4.6-17,10.7-21.4c9.1-6.7,23.9-2.9,36.8-2.7c4.2,0.1,8.2-0.2,11.7-1.4
				c4.4-1.4,8.7-4.5,12.9-8c1.5-1.3,3-2.6,4.5-3.9c5.9-5.1,11.8-10.2,18.2-12.3c2-0.6,4-1,6-1c15.1,0,27,19.5,40.6,24.8
				c0.4,0.2,0.8,0.3,1.2,0.4c6.4,2.1,14.2,1.4,22,0.8c4.4-0.4,8.7-0.7,12.8-0.6c2.8,0.1,5.5,0.4,8,1.2c2.1,0.6,4,1.5,5.8,2.8
				c7.1,5.1,9.3,15.2,11.6,25.2c0.7,3,1.4,5.9,2.2,8.8c0.8,2.8,1.8,5.4,3,7.7c0.6,1.2,1.3,2.3,2,3.3c8.8,12.1,32.2,17.3,36.9,31.8
				C363.8,417.6,363.6,421.6,362.6,425.8z"/>
			<g id="XMLID_1899_">
				<path id="XMLID_1907_" class="st45" d="M265.9,398.4c-10.4,12.2-9.9,36.7-22.9,44.7c-13.4,8.3-35.2-3.3-50.2,0.4
					c-15.1,3.6-29.2,23.8-44.8,22.6c-15.4-1.2-26.3-23.2-40.8-29.2c-0.4-0.2-0.8-0.3-1.2-0.4c-14.1-4.9-36.5,2.5-48.3-7.6
					c-12.2-10.4-7.9-34.6-15.9-47.6c-8.3-13.4-31.7-20.6-35.3-35.6c-3.7-15.1,14-32.3,15.1-47.8c1.2-15.4-13.7-35-7.7-49.6
					c5.8-14.1,30-17.6,40.4-29.8c10.4-12.2,9.9-36.7,22.9-44.7c13.4-8.3,35.2,3.3,50.2-0.4c15.1-3.6,29.2-23.8,44.8-22.6
					c15.4,1.2,26.3,23.2,40.8,29.2c14.1,5.8,37.3-2.3,49.5,8c11.9,10.1,8.1,33.3,15.3,46.5c0.2,0.4,0.4,0.7,0.6,1.1
					c8.3,13.4,31.7,20.6,35.3,35.6c3.7,15.1-14,32.3-15.1,47.8c-1.2,15.4,13.7,35,7.7,49.6C300.5,382.7,276.2,386.2,265.9,398.4z"/>
				<path id="XMLID_1906_" class="st3" d="M265.9,398.4c-10.4,12.2-9.9,36.7-22.9,44.7c-13.4,8.3-35.2-3.3-50.2,0.4
					c-15.1,3.6-29.2,23.8-44.8,22.6c-15.4-1.2-26.3-23.2-40.8-29.2c-0.4-0.2-0.8-0.3-1.2-0.4c-0.2-0.4-0.4-0.7-0.6-1.1
					c-8.3-13.4-31.7-20.6-35.3-35.6c-3.7-15.1,14-32.3,15.1-47.8c1.2-15.4-13.7-35-7.7-49.6c5.8-14.1,30-17.6,40.4-29.8
					c10.4-12.2,9.9-36.7,22.9-44.7c13.4-8.3,35.2,3.3,50.2-0.3c15.1-3.6,29.2-23.8,44.7-22.6c15.4,1.2,26.3,23.2,40.8,29.2
					c0.4,0.2,0.8,0.3,1.2,0.4c0.2,0.4,0.4,0.7,0.6,1.1c8.3,13.4,31.7,20.6,35.3,35.6c3.7,15.1-14,32.3-15.1,47.8
					c-1.2,15.4,13.7,35,7.7,49.6C300.5,382.7,276.2,386.2,265.9,398.4z"/>
				<path id="XMLID_1905_" class="st3" d="M308.5,287.8c-16.6,4.1-32-0.6-34.5-10.6c-2.5-9.9,9-21.3,25.5-25.4s34.5,10.6,34.5,10.6
					S325.1,283.7,308.5,287.8z"/>
				<path id="XMLID_1904_" class="st45" d="M199.3,345.3c-12-12.2-15.7-27.9-8.4-35.1s22.9-3.1,34.9,9.1c12,12.2,8.4,35.1,8.4,35.1
					S211.2,357.5,199.3,345.3z"/>
				<path id="XMLID_1903_" class="st52" d="M215.8,215.6c5.2,16.3,1.5,32-8.3,35.1c-9.8,3.1-21.9-7.6-27-23.8s8.3-35.1,8.3-35.1
					S210.6,199.4,215.8,215.6z"/>
				<path id="XMLID_1902_" class="st52" d="M122.4,268.6c15.3,7.7,23.9,21.3,19.3,30.4c-4.6,9.2-20.7,10.4-36,2.7
					s-19.3-30.4-19.3-30.4S107.1,261,122.4,268.6z"/>
				<path id="XMLID_1901_" class="st52" d="M141.5,159.3c3.1,16.8-2.5,31.9-12.6,33.8c-10.1,1.9-20.8-10.2-23.9-27
					c-3.1-16.8,12.6-33.8,12.6-33.8S138.4,142.5,141.5,159.3z"/>
				<path id="XMLID_1900_" class="st52" d="M50.7,196.1c15.4,7.4,24.3,20.8,19.9,30.1c-4.4,9.2-20.5,10.8-35.9,3.4
					c-15.4-7.4-19.9-30.1-19.9-30.1S35.3,188.7,50.7,196.1z"/>
			</g>
			<g id="XMLID_1890_">
				<path id="XMLID_1898_" class="st45" d="M485.4,185.1c-4,14.8,6.4,35.8-1.6,47.9c-8.2,12.6-31.7,11.5-43.2,20.7
					c-11.6,9.3-15.6,32.5-29.5,37.8c-13.8,5.3-32.1-9.3-47.2-8.6c-0.4,0-0.8,0-1.2,0.1c-14.2,1.5-30.5,17-44.9,13.1
					c-14.8-4-20.9-26.7-33.1-34.7c-12.6-8.2-35.8-4.9-45-16.4c-9.3-11.6-1.1-33.6-6.4-47.5c-5.2-13.8-26.1-24.7-26.9-39.7
					c-0.7-14.5,18.8-27.4,22.8-42.2c4-14.8-6.4-35.8,1.6-47.9c8.2-12.6,31.7-11.5,43.2-20.7c11.6-9.3,15.6-32.5,29.5-37.8
					c13.8-5.3,32.1,9.3,47.2,8.6c14.5-0.7,31.3-17.2,46.1-13.2c14.4,3.9,20.6,25.5,32.1,33.9c0.3,0.3,0.6,0.5,1,0.7
					c12.6,8.2,35.8,4.9,45,16.4c9.3,11.6,1.1,33.6,6.4,47.5c5.2,13.8,26.1,24.7,26.9,39.7C509,157.4,489.4,170.3,485.4,185.1z"/>
				<path id="XMLID_1897_" class="st3" d="M485.4,185.1c-4,14.8,6.4,35.8-1.6,47.9c-8.2,12.6-31.7,11.5-43.2,20.7
					c-11.6,9.3-15.6,32.5-29.5,37.8c-13.8,5.3-32.1-9.3-47.2-8.6c-0.4,0-0.8,0-1.2,0.1c-0.3-0.3-0.6-0.5-1-0.7
					c-12.6-8.2-35.8-4.9-45-16.4c-9.3-11.6-1.1-33.6-6.4-47.5c-5.3-13.8-26.1-24.7-26.9-39.7c-0.7-14.5,18.8-27.4,22.8-42.2
					c4-14.8-6.4-35.8,1.6-47.9c8.2-12.6,31.7-11.5,43.2-20.7c11.6-9.3,15.6-32.5,29.5-37.8c13.8-5.3,32.1,9.3,47.2,8.6
					c0.4,0,0.8,0,1.2-0.1c0.3,0.3,0.6,0.5,1,0.7c12.6,8.2,35.8,4.9,45,16.4c9.3,11.6,1.1,33.6,6.4,47.5
					c5.2,13.8,26.1,24.7,26.9,39.7C509,157.4,489.4,170.3,485.4,185.1z"/>
				<path id="XMLID_1896_" class="st9" d="M477.3,72.2c-12.7,10.3-27.9,12.5-34.1,4.9c-6.2-7.6-0.9-22.1,11.7-32.4
					c12.7-10.3,34.1-4.9,34.1-4.9S489.9,61.9,477.3,72.2z"/>
				<path id="XMLID_1895_" class="st45" d="M406.3,166.3c-15.3-5.7-25-17.7-21.6-26.9s18.6-12,33.9-6.4s21.6,26.9,21.6,26.9
					S421.6,172,406.3,166.3z"/>
				<path id="XMLID_1894_" class="st52" d="M367.8,47.5c11.1,12,14.3,27.1,7.1,33.7c-7.2,6.7-22,2.4-33.1-9.6
					c-11.1-12-7.1-33.7-7.1-33.7S356.7,35.6,367.8,47.5z"/>
				<path id="XMLID_1893_" class="st52" d="M308.6,131.4c16.3,0.4,29.3,8.7,29.1,18.4c-0.2,9.8-13.7,17.4-30,17
					s-29.1-18.4-29.1-18.4S292.3,131,308.6,131.4z"/>
				<path id="XMLID_1892_" class="st52" d="M280.6,29.1c9.5,13.2,10.8,28.6,2.9,34.3c-7.9,5.7-22.1-0.4-31.6-13.6S249,15.5,249,15.5
					S271.1,15.9,280.6,29.1z"/>
				<path id="XMLID_1891_" class="st52" d="M217.1,97.9c16.3,0.1,29.5,8.1,29.4,17.9s-13.3,17.6-29.6,17.6
					c-16.3-0.1-29.4-17.9-29.4-17.9S200.8,97.8,217.1,97.9z"/>
			</g>
			<g id="XMLID_1872_">
				<path id="XMLID_1889_" class="st150" d="M351.2,327.3c0,0,41.6-1.5,64.4-13c2.2-1.1,5-1.1,7,0.3c0.2,0.1,0.3,0.2,0.5,0.4
					c3,2.4,6.3,4.1,10.1,4.8c3.9,0.7,8.8,1.1,13.6,0.1c12.7-2.6,19.8-16.4,15-28.5l-0.7-1.8l-63,5.5l-42.2,1.4l-10.6,5.9l-2.4,22.2
					L351.2,327.3z"/>
				<g id="XMLID_1883_">
					<path id="XMLID_1888_" class="st364" d="M482.7,255.4l-2.2,5.4l-9,22.4c-3.5,8.7-11.6,14.4-20.5,15.1c-2.8,0.2-5.7,0-8.6-0.8
						c-11.9-3.4-19.3-15.3-17.1-27.4l4.2-23.8l1-5.8L482.7,255.4z"/>
					<path id="XMLID_1887_" class="st365" d="M487.4,258.2c-0.3,1.2-1.1,2.1-2.1,2.6c-1,0.5-2.2,0.7-3.4,0.4l-53.8-15.4
						c-2.4-0.7-3.7-3.1-3-5.5c1.7-6,5.7-10.7,10.7-13.5c5-2.8,11.1-3.7,17.1-2l19,5.4c11.5,3.3,18.3,15,15.8,26.5
						C487.6,257.3,487.5,257.7,487.4,258.2z"/>
					<path id="XMLID_1886_" class="st366" d="M487.4,258.2c-0.3,1.2-1.1,2.1-2.1,2.6c-1,0.5-2.2,0.7-3.4,0.4l-1.4-0.4l-9,22.4
						c-3.5,8.7-11.6,14.4-20.5,15.1c-7.2-5.3-11-14.4-9.4-23.6l4.2-23.8l1-5.8l40.8,11.7C487.6,257.3,487.5,257.7,487.4,258.2z"/>
					<path id="XMLID_1885_" class="st367" d="M487.4,258.2c-0.3,1.2-1.1,2.1-2.1,2.6c-1,0.5-2.2,0.7-3.4,0.4l-37.5-10.7
						c-2.4-0.7-3.7-3.1-3-5.5c0.1-0.5,0.3-0.9,0.4-1.3c1.9-5.3,5.6-9.6,10.3-12.2c5-2.8,11.1-3.7,17.1-2l2.7,0.8
						c11.5,3.3,18.3,15,15.8,26.5C487.6,257.3,487.5,257.7,487.4,258.2z"/>
					<path id="XMLID_1884_" class="st368" d="M464.2,228.6l-7.2-2.1l1.1-19.8c0.1-2,2.1-3.4,4-2.8l7.3,2.1c1.8,0.5,2.7,2.4,2.1,4.1
						L464.2,228.6z"/>
				</g>
				<path id="XMLID_1882_" class="st150" d="M355.8,39.8c5.2,11.7,5.1,37.1-6.6,42.3c-11.7,5.2-30.7-11.6-35.9-23.3
					c-5.2-11.7,0-25.5,11.8-30.8S350.6,28.1,355.8,39.8z"/>
				<path id="XMLID_1881_" class="st369" d="M347.2,51.9c2.9,6.6,2.9,20.8-3.7,23.7c-6.6,2.9-17.2-6.5-20.1-13.1
					c-2.9-6.6,0-14.3,6.6-17.2C336.5,42.4,344.2,45.3,347.2,51.9z"/>
				<path id="XMLID_1880_" class="st91" d="M374.6,197.9c0,0-4.6,137.7-63.7,181.7l-30.3-78.6c0,0,22.5-68.7,29.5-80.3
					c7-11.6,50.5-63.4,50.5-63.4L374.6,197.9z"/>
				<path id="XMLID_1879_" class="st59" d="M162.2,249.4l1.7,170.8c0,0-76.9,3.9-112.7-69.8c-17.8-36.7-18.3-79.4-2.5-117
					c15.7-37.2,31-91-22.2-72.3c0,0-5.6-45.6,29.4-68.7c33-21.7,78-11.2,98.3,22.7C168.7,139.4,176.7,180.4,162.2,249.4z"/>
				<path id="XMLID_1878_" class="st59" d="M466.7,285.1c0.8,12.5-10.1,23.4-24.4,24.3c-7,0.5-13.6-1.6-18.5-5.2
					c-2.8-2.1-6.5-2.6-9.9-1.6c-25.2,7.6-73.1,16.1-99.5-17.3c5,11.2,8.2,23.5,9.1,36.5c1.4,20.8-3.4,40.6-12.6,57.7l35.7-2.3
					c20.4-1.3,38,14.1,39.3,34.5l0.2,3.5c0.3,5-3.4,9.3-8.4,9.6l-152.1,10c-58.5,3.8-109.9-39.8-114.1-98.3
					c-3.3-45.4,22.4-86,61.2-104.1c5.5-2.6,11.3-4.7,17.3-6.3c37.7-14.8,62.2-32.3,78-47.7c0,0,0.1-0.1,0.1-0.1
					c7.4-7.3,13.4-15.8,18-25c4.9-9.9,8.1-20.7,9.6-31.9c1.7-13,7.2-25.6,16.5-36.2c12.1-13.7,28.4-21.3,45.2-22.8
					c18-1.6,36.6,3.9,51.2,16.8c28.2,25,57.6,91.7,32.7,119.9c-5.7,6.4-13.7,10.3-23,12.2c-18.6,3.7-42.3-0.6-63.2-8.6l0,0
					c0,0-0.1,0-0.2-0.1c-4.9-1.9-9.7-4-14.1-6.3c0,0-0.2,3,0.1,7.9c1.2,18.3,10.4,63,70.7,71.8c3.4,0.5,6.9-0.6,9.2-3.2
					c4.4-4.9,11.1-8.3,18.7-8.8C453.6,263.3,465.9,272.6,466.7,285.1z"/>
				<path id="XMLID_1877_" class="st91" d="M328.7,169.6c4.7,10.6,14.6,23.1,26.3,33.3c20.9,8.1,44.6,12.4,63.2,8.6
					c14.7-20.1,13.2-62.2,3.7-83.6c-11.5-25.7-41.6-37.3-67.4-25.8C328.8,113.7,317.2,143.9,328.7,169.6z"/>
				<path id="XMLID_1876_" class="st370" d="M163.9,420.2c0,0-76.9,3.9-112.7-69.8c-17.8-36.7-18.3-79.4-2.5-117
					c15.7-37.2,31-91-22.2-72.3c0,0,5.1-11.3,14.3-22.3c27.5-32.9,80.1-2.5,65.2,37.7C83.7,236.4,55.3,358.8,163.9,420.2z"/>
				<path id="XMLID_1875_" class="st370" d="M225.6,434.8c-58.5,3.8-109.9-39.8-114.1-98.3c-3.3-45.4,22.4-86,61.2-104.1
					c5.5-2.6,11.3-4.7,17.3-6.3c37.7-14.8,62.2-32.3,78-47.7C264.7,182.2,125.4,338.3,225.6,434.8z"/>
				<path id="XMLID_1874_" class="st365" d="M401,138.4c0.5,7-3.6,13.3-9.7,15.9c-1.7,0.7-3.5,1.2-5.4,1.3
					c-8.9,0.6-16.6-6.2-17.2-15.1c-0.6-8.9,6.2-16.6,15.1-17.2c1.9-0.1,3.8,0.1,5.5,0.6C395.6,125.7,400.5,131.4,401,138.4z"/>
				<path id="XMLID_1873_" class="st367" d="M401,138.4c0.5,7-3.6,13.3-9.7,15.9c-6.4-1.8-11.3-7.5-11.7-14.5
					c-0.5-7,3.6-13.3,9.7-15.9C395.6,125.7,400.5,131.4,401,138.4z"/>
			</g>
		</g>
		<circle class="st365" cx="446" cy="186.1" r="12.5"/>
		<path id="XMLID_1734_" class="st368" d="M440.1,188.5c0-6.9,5.6-12.5,12.5-12.5c0.3,0,0.5,0,0.8,0c-2.1-1.5-4.6-2.4-7.4-2.4
			c-6.9,0-12.5,5.6-12.5,12.5c0,6.6,5.2,12.1,11.7,12.5C442.1,196.3,440.1,192.7,440.1,188.5z"/>
	</g>
</g>
</svg>
