<?xml version="1.0" encoding="utf-8"?>
<!-- Generator: Adobe Illustrator 22.0.0, SVG Export Plug-In . SVG Version: 6.00 Build 0)  -->
<svg version="1.1" xmlns="http://www.w3.org/2000/svg" xmlns:xlink="http://www.w3.org/1999/xlink" x="0px" y="0px"
	 viewBox="0 0 512 512" style="enable-background:new 0 0 512 512;" xml:space="preserve">
<style type="text/css">
	.st0{fill:#E1902B;}
	.st1{fill:#3D2A3D;}
	.st2{fill:#E7AD84;}
	.st3{fill:#2961A5;}
	.st4{fill:#FFD66C;}
	.st5{fill:#A18FA1;}
	.st6{fill:#DB4646;}
	.st7{fill:#78BEDE;}
	.st8{fill:#43B06D;}
	.st9{fill:#9EC853;}
	.st10{fill:#217D44;}
	.st11{fill:#DBDBDB;}
	.st12{fill:#FFFFFF;}
	.st13{fill:#C41E1E;}
	.st14{fill:#B9BDC2;}
	.st15{fill:#856685;}
	.st16{fill:#E8E8E8;}
	.st17{fill:#BDBDBD;}
	.st18{fill:#839797;}
	.st19{fill:#D9D9D9;}
	.st20{fill:#F0F0F0;}
	.st21{fill:#BFBFBF;}
	.st22{fill:#706470;}
	.st23{fill:#4B1E4C;}
	.st24{fill:#614F61;}
	.st25{fill:#A37352;}
	.st26{fill:#7A6C7A;}
	.st27{fill:#919191;}
	.st28{fill:#6E6E6E;}
	.st29{fill:#B8B8B8;}
	.st30{fill:#FF826E;}
	.st31{fill:#7D5737;}
	.st32{fill:#2E1B17;}
	.st33{fill:#483324;}
	.st34{fill:#9E9E9E;}
	.st35{fill:#7D6F7D;}
	.st36{fill:#6B4A6B;}
	.st37{fill:#4A80C2;}
	.st38{fill:#B34B0F;}
	.st39{fill:#FFC682;}
	.st40{clip-path:url(#SVGID_2_);fill:#DBDBDB;}
	.st41{fill:#FFDBC5;}
	.st42{fill:#E3E3E3;}
	.st43{clip-path:url(#SVGID_4_);}
	.st44{clip-path:url(#SVGID_6_);fill:#DBDBDB;}
	.st45{clip-path:url(#SVGID_8_);}
	.st46{fill:#E8B494;}
	.st47{fill:#F2D7C4;}
	.st48{fill:#5D5660;}
	.st49{fill:#3B2D3F;}
	.st50{fill:#756275;}
	.st51{fill:#E1622B;}
	.st52{fill:#F0E9E9;}
	.st53{fill:#4D917B;}
	.st54{fill:#C4C4C4;}
	.st55{fill:#14855A;}
	.st56{fill:#C21B1B;}
</style>
<g id="Layer_9">
	<path class="st4" d="M0,256C0,114.6,114.6,0,256,0c141.4,0,256,114.6,256,256c0,141.4-114.6,256-256,256C114.6,512,0,397.4,0,256z"
		/>
</g>
<g id="Layer_7">
	<g>
		<g>
			<path class="st8" d="M431.7,256.9c0-22-14-41.4-35.4-53.1c-11,16.7-28,27.4-47.2,27.4c-19.1,0-36.2-10.7-47.2-27.4
				c-21.4,11.7-35.4,31.1-35.4,53.1c0,22,14,41.4,35.4,53.1c11-16.7,28-27.4,47.2-27.4c19.1,0,36.2,10.7,47.2,27.4
				C417.7,298.3,431.7,278.9,431.7,256.9z"/>
			<path class="st10" d="M396.3,203.7c-4.7,7.1-10.5,13.2-17.2,17.8c4.4,10.6,6.9,22.6,6.9,35.4c0,12.8-2.5,24.8-6.9,35.4
				c6.6,4.6,12.4,10.6,17.2,17.8c21.4-11.7,35.4-31.1,35.4-53.1C431.7,234.9,417.7,215.4,396.3,203.7z"/>
		</g>
		<path class="st10" d="M295.4,247.7c0-40.8,15.6-77.1,39.9-100.2C316,130.9,291.7,121,265.3,121c-63.3,0-114.6,56.7-114.6,126.7
			c0,70,51.3,126.7,114.6,126.7c26.4,0,50.7-9.9,70.1-26.4C311.1,324.7,295.4,288.5,295.4,247.7z"/>
		<path class="st8" d="M347.4,259.1c0,56.3-52.9,101.9-118.2,101.9c-65.3,0-118.2-101.9-118.2-101.9s52.9-101.9,118.2-101.9
			C294.5,157.2,347.4,202.8,347.4,259.1z"/>
		<g>
			<path class="st8" d="M136,229.6c-11,11.8-27,19.5-43,21.3v19.7c1,0.1,1.3,0.3,2.2,0.4c16.7,3.1,31.8,11.8,40.8,23.8V229.6z"/>
			<path class="st8" d="M135,261.4c0,5.9-4.8,10.6-10.6,10.6H92.6c-5.9,0-10.6-4.8-10.6-10.6v-0.7c0-5.9,4.8-10.6,10.6-10.6h31.7
				c5.9,0,10.6,4.8,10.6,10.6V261.4z"/>
		</g>
		<path class="st1" d="M154.4,241.6c0,6.7-5.4,12.1-12.1,12.1s-12.1-5.4-12.1-12.1c0-6.7,5.4-12.1,12.1-12.1S154.4,235,154.4,241.6z
			"/>
		<g>
			<path class="st10" d="M313.1,307.7c-5.4-16.2-5.7-33.1-5.8-50.4c-0.1-17.3,0.4-34.3,5.8-50.4c2.5-7.5-2.8-15.8-10.1-17.8
				c-7.9-2.2-15.3,2.6-17.8,10.1c-6.1,18.3-6.7,39-6.8,58.1c-0.1,19.1,0.7,39.9,6.8,58.1c2.5,7.5,9.9,12.3,17.8,10.1
				C310.3,323.5,315.6,315.2,313.1,307.7L313.1,307.7z"/>
		</g>
		<g>
			<path class="st10" d="M263.4,316.3c1.4,3.2-0.7-1.9-0.9-2.5c-0.6-1.8-1.2-3.7-1.7-5.6c-1.4-4.9-2.3-10-3.2-15
				c-2-11.8-2.4-24-2.4-35.9c0-11.3,0.5-22.8,2.2-34.1c0.8-5.2,1.8-10.3,3.1-15.3c0.5-1.9,1.1-3.9,1.7-5.8c0.3-0.9,2.7-6.8,1.3-3.9
				c3.2-7.2,2.2-15.5-5.2-19.8c-6.2-3.7-16.6-2-19.8,5.2c-10.2,22.8-12.1,49-12.2,73.7c-0.1,24.6,2,50.9,12.2,73.7
				c3.2,7.2,13.6,8.8,19.8,5.2C265.6,331.8,266.6,323.5,263.4,316.3L263.4,316.3z"/>
		</g>
		<g>
			<path class="st10" d="M215.1,304.3c-2-3.7-1.5-2.8-2.9-7.1c-1.3-3.9-2.2-7.9-3-12c-1.8-9.2-2.2-18.6-2.3-27.9
				c-0.1-9.4,0.6-18.7,2.3-27.9c0.7-4,1.8-8,3-12c1.3-4.3,1-3.4,2.9-7.1c8.9-16.4-16.1-31-25-14.6c-10,18.5-12,41-12.2,61.6
				c-0.1,20.5,2.3,43.3,12.2,61.6C199,335.3,224,320.7,215.1,304.3L215.1,304.3z"/>
		</g>
	</g>
</g>
</svg>
